<?xml version="1.0" encoding="UTF-8"?>
<svg xmlns="http://www.w3.org/2000/svg" width="400" height="400" viewBox="0 0 400 400">
  <path d="M 100,200 Q 110,170.0 135,200.0 Q 145,213.04136545397137 170,243.04136545397137 Q 180,229.9744161824903 205,259.9744161824903 Q 215,210.52779083306905 240,240.52779083306905 Q 250,166.4975513943452 275,196.4975513943452 Q 285,124.5918502815243 310,154.5918502815243 Q 320,110.23012346984956 345,140.23012346984956 Q 355,132.12400172766075 380,162.12400172766075 " fill="none" stroke="#8B008B" stroke-width="8"/>
  <path d="M 100,200 Q 110,230.0 135,200.0 Q 145,186.95863454602863 170,156.95863454602863 Q 180,170.0255838175097 205,140.0255838175097 Q 215,189.47220916693095 240,159.47220916693095 Q 250,233.5024486056548 275,203.5024486056548 Q 285,275.40814971847567 310,245.4081497184757 Q 320,289.76987653015044 345,259.76987653015044 Q 355,267.8759982723392 380,237.87599827233922 " fill="none" stroke="#9932CC" stroke-width="8"/>
  <circle cx="300" cy="162.12" r="8" fill="#8B008B"/>
  <circle cx="300" cy="237.88" r="8" fill="#9932CC"/>
  <text x="200" y="380" text-anchor="middle" font-family="Arial" font-size="14" fill="#333">Intertwined Serpents (Ningishzida)</text>
</svg>