<?xml version="1.0" encoding="UTF-8"?>
<svg xmlns="http://www.w3.org/2000/svg" width="400" height="400" viewBox="0 0 400 400">
  <path d="M 200,200 L 205.73,201.77 L 205.78,203.95 L 204.97,206.27 L 203.26,208.39 L 200.71,209.97 L 197.50,210.71 L 193.94,210.36 L 190.41,208.78 L 187.34,205.98 L 185.15,202.12 L 184.20,197.48 L 184.76,192.48 L 186.93,187.62 L 190.69,183.44 L 195.78,180.45 L 201.84,179.08 L 208.32,179.63 L 214.60,182.23 L 220.03,186.78 L 224.00,193.01 L 226.00,200.44 L 225.66,208.41 L 222.84,216.20 L 217.64,223.02 L 210.40,228.14 L 201.67,230.95 L 192.21,231.04 L 182.86,228.20 L 174.55,222.54 L 168.11,214.42 L 164.28,204.48 L 163.57,193.55 L 166.21,182.61 L 172.14,172.70 L 180.98,164.81 L 192.03,159.78 L 204.38,158.23 L 216.92,160.47 L 228.49,166.47 L 237.97,175.85 L 244.38,187.89 L 246.97,201.58 L 245.35,215.72 L 239.49,229.01 L 229.75,240.19 L 216.87,248.13 L 201.93,251.96 L 186.23,251.18 L 171.19,245.67 L 158.22,235.77 L 148.60,222.22 L 143.33,206.14 L 143.07,188.93 L 148.00,172.13 L 157.86,157.29 L 171.90,145.86 L 188.98,138.99 L 207.62,137.46 L 226.17,141.59 L 242.92,151.19 L 256.28,165.53 L 264.92,183.45 L 267.91,203.43 L 264.81,223.69 L 255.71,242.39 L 241.27,257.77 L 222.67,268.34 L 201.49,272.98 L 179.57,271.13 L 158.92,262.75 L 141.44,248.44 L 128.82,229.36 L 122.32,207.10 L 122.72,183.62 L 130.14,161.03 L 144.08,141.40 L 163.45,126.59 L 186.62,118.09 L 211.56,116.80 L 236.06,123.03 " fill="none" stroke="#8B008B" stroke-width="3"/>
  <path d="M 200,200 L 194.27,198.23 L 194.22,196.05 L 195.03,193.73 L 196.74,191.61 L 199.29,190.03 L 202.50,189.29 L 206.06,189.64 L 209.59,191.22 L 212.66,194.02 L 214.85,197.88 L 215.80,202.52 L 215.24,207.52 L 213.07,212.38 L 209.31,216.56 L 204.22,219.55 L 198.16,220.92 L 191.68,220.37 L 185.40,217.77 L 179.97,213.22 L 176.00,206.99 L 174.00,199.56 L 174.34,191.59 L 177.16,183.80 L 182.36,176.98 L 189.60,171.86 L 198.33,169.05 L 207.79,168.96 L 217.14,171.80 L 225.45,177.46 L 231.89,185.58 L 235.72,195.52 L 236.43,206.45 L 233.79,217.39 L 227.86,227.30 L 219.02,235.19 L 207.97,240.22 L 195.62,241.77 L 183.08,239.53 L 171.51,233.53 L 162.03,224.15 L 155.62,212.11 L 153.03,198.42 L 154.65,184.28 L 160.51,170.99 L 170.25,159.81 L 183.13,151.87 L 198.07,148.04 L 213.77,148.82 L 228.81,154.33 L 241.78,164.23 L 251.40,177.78 L 256.67,193.86 L 256.93,211.07 L 252.00,227.87 L 242.14,242.71 L 228.10,254.14 L 211.02,261.01 L 192.38,262.54 L 173.83,258.41 L 157.08,248.81 L 143.72,234.47 L 135.08,216.55 L 132.09,196.57 L 135.19,176.31 L 144.29,157.61 L 158.73,142.23 L 177.33,131.66 L 198.51,127.02 L 220.43,128.87 L 241.08,137.25 L 258.56,151.56 L 271.18,170.64 L 277.68,192.90 L 277.28,216.38 L 269.86,238.97 L 255.92,258.60 L 236.55,273.41 L 213.38,281.91 L 188.44,283.20 L 163.94,276.97 " fill="none" stroke="#9932CC" stroke-width="3"/>
  <text x="200" y="380" text-anchor="middle" font-family="Arial" font-size="14" fill="#333">Double Spiral</text>
</svg>