<?xml version="1.0" encoding="UTF-8"?>
<svg xmlns="http://www.w3.org/2000/svg" width="400" height="400" viewBox="0 0 400 400">
  <path d="M 200,200 L 205.92,201.83 L 206.11,204.18 L 205.35,206.74 L 203.55,209.13 L 200.78,210.97 L 197.23,211.88 L 193.24,211.57 L 189.23,209.86 L 185.72,206.75 L 183.17,202.40 L 182.03,197.13 L 182.60,191.42 L 185.05,185.83 L 189.31,181.00 L 195.15,177.52 L 202.12,175.89 L 209.60,176.48 L 216.88,179.44 L 223.21,184.69 L 227.84,191.90 L 230.20,200.51 L 229.84,209.78 L 226.59,218.86 L 220.56,226.83 L 212.13,232.83 L 201.95,236.15 L 190.89,236.27 L 179.96,232.99 L 170.20,226.39 L 162.64,216.90 L 158.13,205.25 L 157.26,192.43 L 160.34,179.59 L 167.29,167.95 L 177.65,158.65 L 190.63,152.72 L 205.15,150.87 L 219.91,153.48 L 233.55,160.53 L 244.72,171.56 L 252.29,185.73 L 255.37,201.86 L 253.48,218.54 L 246.58,234.22 L 235.10,247.42 L 219.92,256.81 L 202.28,261.36 L 183.74,260.45 L 165.96,253.96 L 150.62,242.27 L 139.23,226.26 L 132.99,207.26 L 132.66,186.91 L 138.48,167.02 L 150.13,149.46 L 166.74,135.92 L 186.95,127.77 L 209.02,125.95 L 230.99,130.83 L 250.84,142.17 L 266.69,159.16 L 276.94,180.39 L 280.50,204.06 L 276.83,228.08 L 266.05,250.26 L 248.95,268.51 L 226.89,281.06 L 201.76,286.58 L 175.77,284.39 L 151.25,274.46 L 130.50,257.50 L 115.50,234.85 L 107.78,208.43 L 108.24,180.55 L 117.04,153.72 L 133.59,130.40 L 156.59,112.81 L 184.10,102.69 L 213.73,101.15 L 242.84,108.54 L 268.77,124.39 L 289.07,147.48 L 301.78,175.87 L 305.56,207.11 L 299.86,238.42 L 284.99,266.96 L 262.09,290.07 L 233.06,305.54 L 200.40,311.80 L 166.99,308.07 L 135.85,294.48 L 109.86,272.05 L 91.47,242.64 L 82.53,208.75 L 84.02,173.37 L 96.03,139.68 L 117.68,110.77 L 147.21,89.35 L 182.10,77.50 L 219.28,76.50 " fill="none" stroke="#8B008B" stroke-width="3"/>
  <text x="200" y="380" text-anchor="middle" font-family="Arial" font-size="14" fill="#333">Spiral</text>
</svg>