<?xml version="1.0" encoding="UTF-8"?>
<svg xmlns="http://www.w3.org/2000/svg" width="500" height="300" viewBox="0 0 500 300">
  <path d="M 20,150 Q 45,100 70,150 Q 95,200 120,150 Q 145,100 170,150 Q 195,200 220,150 Q 245,100 270,150 Q 295,200 320,150 Q 345,100 370,150 Q 395,200 420,150 Q 445,100 470,150 Q 495,200 520,150 " fill="none" stroke="#1E90FF" stroke-width="8" opacity="0.7"/>
  <path d="M 20,150 Q 45,200 70,150 Q 95,100 120,150 Q 145,200 170,150 Q 195,100 220,150 Q 245,200 270,150 Q 295,100 320,150 Q 345,200 370,150 Q 395,100 420,150 Q 445,200 470,150 Q 495,100 520,150 " fill="none" stroke="#00BFFF" stroke-width="8" opacity="0.7"/>
  <text x="250" y="280" text-anchor="middle" font-family="Arial" font-size="14" fill="#333">Guilloche Pattern (Enki's Waters)</text>
</svg>