<?xml version="1.0" encoding="UTF-8"?>
<svg xmlns="http://www.w3.org/2000/svg" width="400" height="500" viewBox="0 0 400 500">
  <path d="M 50,100 L 50,130 L 95,70 L 140,130 L 185,70 L 230,130 L 275,70 L 320,130 L 365,70 " fill="none" stroke="#1E90FF" stroke-width="8"/>
  <path d="M 50,150 L 50,180 L 95,120 L 140,180 L 185,120 L 230,180 L 275,120 L 320,180 L 365,120 " fill="none" stroke="#1E90FF" stroke-width="8"/>
  <path d="M 50,200 L 50,230 L 95,170 L 140,230 L 185,170 L 230,230 L 275,170 L 320,230 L 365,170 " fill="none" stroke="#1E90FF" stroke-width="8"/>
  <path d="M 50,250 L 50,280 L 95,220 L 140,280 L 185,220 L 230,280 L 275,220 L 320,280 L 365,220 " fill="none" stroke="#1E90FF" stroke-width="8"/>
  <circle cx="200" cy="150" r="40" fill="#4682B4" stroke="#00008B" stroke-width="3"/>
  <circle cx="185" cy="140" r="6" fill="white"/>
  <circle cx="215" cy="140" r="6" fill="white"/>
  <rect x="0" y="350" width="400" height="80" fill="#E0F6FF"/>
  <text x="200" y="380" text-anchor="middle" font-family="Arial" font-size="20" font-weight="bold" fill="#00008B">ENKI/EA</text>
  <text x="200" y="405" text-anchor="middle" font-family="Arial" font-size="14" fill="#1E90FF">Water • Wisdom • Creation</text>
  <text x="200" y="425" text-anchor="middle" font-family="Arial" font-size="12" fill="#1E90FF">Flowing Water • Zigzag Pattern</text>
</svg>