<?xml version="1.0" encoding="UTF-8"?>
<svg xmlns="http://www.w3.org/2000/svg" width="400" height="500" viewBox="0 0 400 500">
  <circle cx="200" cy="150" r="100" fill="#FFA500" stroke="#FF4500" stroke-width="4"/>
  <line x1="200.00" y1="50.00" x2="200.00" y2="10.00" stroke="#FF4500" stroke-width="6"/>
  <line x1="238.27" y1="57.61" x2="245.92" y2="39.13" stroke="#FF4500" stroke-width="6"/>
  <line x1="270.71" y1="79.29" x2="298.99" y2="51.01" stroke="#FF4500" stroke-width="6"/>
  <line x1="292.39" y1="111.73" x2="310.87" y2="104.08" stroke="#FF4500" stroke-width="6"/>
  <line x1="300.00" y1="150.00" x2="340.00" y2="150.00" stroke="#FF4500" stroke-width="6"/>
  <line x1="292.39" y1="188.27" x2="310.87" y2="195.92" stroke="#FF4500" stroke-width="6"/>
  <line x1="270.71" y1="220.71" x2="298.99" y2="248.99" stroke="#FF4500" stroke-width="6"/>
  <line x1="238.27" y1="242.39" x2="245.92" y2="260.87" stroke="#FF4500" stroke-width="6"/>
  <line x1="200.00" y1="250.00" x2="200.00" y2="290.00" stroke="#FF4500" stroke-width="6"/>
  <line x1="161.73" y1="242.39" x2="154.08" y2="260.87" stroke="#FF4500" stroke-width="6"/>
  <line x1="129.29" y1="220.71" x2="101.01" y2="248.99" stroke="#FF4500" stroke-width="6"/>
  <line x1="107.61" y1="188.27" x2="89.13" y2="195.92" stroke="#FF4500" stroke-width="6"/>
  <line x1="100.00" y1="150.00" x2="60.00" y2="150.00" stroke="#FF4500" stroke-width="6"/>
  <line x1="107.61" y1="111.73" x2="89.13" y2="104.08" stroke="#FF4500" stroke-width="6"/>
  <line x1="129.29" y1="79.29" x2="101.01" y2="51.01" stroke="#FF4500" stroke-width="6"/>
  <line x1="161.73" y1="57.61" x2="154.08" y2="39.13" stroke="#FF4500" stroke-width="6"/>
  <circle cx="200" cy="150" r="70" fill="#FFD700" stroke="#FF8C00" stroke-width="3"/>
  <circle cx="180" cy="140" r="8" fill="#8B4513"/>
  <circle cx="220" cy="140" r="8" fill="#8B4513"/>
  <path d="M 180,170 Q 200,180 220,170" fill="none" stroke="#8B4513" stroke-width="4"/>
  <rect x="0" y="350" width="400" height="80" fill="#F5DEB3"/>
  <text x="200" y="380" text-anchor="middle" font-family="Arial" font-size="20" font-weight="bold" fill="#8B4513">SHAMASH</text>
  <text x="200" y="405" text-anchor="middle" font-family="Arial" font-size="14" fill="#654321">Sun God • Justice</text>
  <text x="200" y="425" text-anchor="middle" font-family="Arial" font-size="12" fill="#654321">Solar Disc • Circle Geometry</text>
</svg>