<?xml version="1.0" encoding="UTF-8"?>
<svg xmlns="http://www.w3.org/2000/svg" width="400" height="400" viewBox="0 0 400 400">
  <rect x="60" y="60" width="280" height="280" fill="#F0E68C" stroke="#8B4513" stroke-width="4"/>
  <circle cx="200" cy="200" r="130" fill="#E6E6FA" stroke="#4B0082" stroke-width="3"/>
  <circle cx="200" cy="200" r="80" fill="#FFD700" stroke="#B8860B" stroke-width="2"/>
  <circle cx="220" cy="200" r="80" fill="#E6E6FA" stroke="none"/>
  <polygon points="200.00,150.00 207.65,181.52 235.36,164.64 218.48,192.35 250.00,200.00 218.48,207.65 235.36,235.36 207.65,218.48 200.00,250.00 192.35,218.48 164.64,235.36 181.52,207.65 150.00,200.00 181.52,192.35 164.64,164.64 192.35,181.52" fill="#FF69B4" stroke="#8B0000" stroke-width="2"/>
  <circle cx="200" cy="200" r="25" fill="#FFA500" stroke="#FF4500" stroke-width="2"/>
  <line x1="215.00" y1="200.00" x2="235.00" y2="200.00" stroke="#FF4500" stroke-width="2"/>
  <line x1="210.61" y1="210.61" x2="224.75" y2="224.75" stroke="#FF4500" stroke-width="2"/>
  <line x1="200.00" y1="215.00" x2="200.00" y2="235.00" stroke="#FF4500" stroke-width="2"/>
  <line x1="189.39" y1="210.61" x2="175.25" y2="224.75" stroke="#FF4500" stroke-width="2"/>
  <line x1="185.00" y1="200.00" x2="165.00" y2="200.00" stroke="#FF4500" stroke-width="2"/>
  <line x1="189.39" y1="189.39" x2="175.25" y2="175.25" stroke="#FF4500" stroke-width="2"/>
  <line x1="200.00" y1="185.00" x2="200.00" y2="165.00" stroke="#FF4500" stroke-width="2"/>
  <line x1="210.61" y1="189.39" x2="224.75" y2="175.25" stroke="#FF4500" stroke-width="2"/>
  <text x="200" y="380" text-anchor="middle" font-family="Arial" font-size="14" fill="#333">Divine Composite Symbol</text>
</svg>