<?xml version="1.0" encoding="UTF-8"?>
<svg xmlns="http://www.w3.org/2000/svg" width="400" height="400" viewBox="0 0 400 400">
  <polygon points="200.00,60.00 221.43,148.26 298.99,101.01 251.74,178.57 340.00,200.00 251.74,221.43 298.99,298.99 221.43,251.74 200.00,340.00 178.57,251.74 101.01,298.99 148.26,221.43 60.00,200.00 148.26,178.57 101.01,101.01 178.57,148.26" fill="#FFE4E1" stroke="#8B0000" stroke-width="2"/>
  <polygon points="200.00,100.00 215.31,163.04 270.71,129.29 236.96,184.69 300.00,200.00 236.96,215.31 270.71,270.71 215.31,236.96 200.00,300.00 184.69,236.96 129.29,270.71 163.04,215.31 100.00,200.00 163.04,184.69 129.29,129.29 184.69,163.04" fill="#FFB6C1" stroke="#8B0000" stroke-width="2"/>
  <polygon points="200.00,140.00 209.18,177.83 242.43,157.57 222.17,190.82 260.00,200.00 222.17,209.18 242.43,242.43 209.18,222.17 200.00,260.00 190.82,222.17 157.57,242.43 177.83,209.18 140.00,200.00 177.83,190.82 157.57,157.57 190.82,177.83" fill="#FF69B4" stroke="#8B0000" stroke-width="2"/>
  <circle cx="200" cy="200" r="20" fill="#FF1493" stroke="#8B0000" stroke-width="2"/>
  <text x="200" y="380" text-anchor="middle" font-family="Arial" font-size="14" fill="#333">Venus Star (Inanna/Ishtar)</text>
</svg>