<?xml version="1.0" encoding="UTF-8"?>
<svg xmlns="http://www.w3.org/2000/svg" width="400" height="400" viewBox="0 0 400 400">
  <polygon points="321.24,130.00 321.24,270.00 200.00,340.00 78.76,270.00 78.76,130.00 200.00,60.00" fill="none" stroke="#32CD32" stroke-width="2"/>
  <polygon points="286.60,150.00 286.60,250.00 200.00,300.00 113.40,250.00 113.40,150.00 200.00,100.00" fill="none" stroke="#32CD32" stroke-width="2"/>
  <polygon points="251.96,170.00 251.96,230.00 200.00,260.00 148.04,230.00 148.04,170.00 200.00,140.00" fill="none" stroke="#32CD32" stroke-width="2"/>
  <polygon points="200.00,120.00 220.00,165.36 269.28,160.00 240.00,200.00 269.28,240.00 220.00,234.64 200.00,280.00 180.00,234.64 130.72,240.00 160.00,200.00 130.72,160.00 180.00,165.36" fill="#90EE90" stroke="#228B22" stroke-width="2"/>
  <circle cx="200" cy="200" r="15" fill="#228B22"/>
  <text x="200" y="380" text-anchor="middle" font-family="Arial" font-size="14" fill="#333">Nested Hexagonal Patterns</text>
</svg>