<?xml version="1.0" encoding="UTF-8"?>
<svg xmlns="http://www.w3.org/2000/svg" width="400" height="400" viewBox="0 0 400 400">
  <circle cx="200" cy="200" r="150" fill="none" stroke="#9370DB" stroke-width="3"/>
  <line x1="200.00" y1="100.00" x2="200.00" y2="50.00" stroke="#9370DB" stroke-width="2"/>
  <line x1="250.00" y1="113.40" x2="275.00" y2="70.10" stroke="#9370DB" stroke-width="2"/>
  <line x1="286.60" y1="150.00" x2="329.90" y2="125.00" stroke="#9370DB" stroke-width="2"/>
  <line x1="300.00" y1="200.00" x2="350.00" y2="200.00" stroke="#9370DB" stroke-width="2"/>
  <line x1="286.60" y1="250.00" x2="329.90" y2="275.00" stroke="#9370DB" stroke-width="2"/>
  <line x1="250.00" y1="286.60" x2="275.00" y2="329.90" stroke="#9370DB" stroke-width="2"/>
  <line x1="200.00" y1="300.00" x2="200.00" y2="350.00" stroke="#9370DB" stroke-width="2"/>
  <line x1="150.00" y1="286.60" x2="125.00" y2="329.90" stroke="#9370DB" stroke-width="2"/>
  <line x1="113.40" y1="250.00" x2="70.10" y2="275.00" stroke="#9370DB" stroke-width="2"/>
  <line x1="100.00" y1="200.00" x2="50.00" y2="200.00" stroke="#9370DB" stroke-width="2"/>
  <line x1="113.40" y1="150.00" x2="70.10" y2="125.00" stroke="#9370DB" stroke-width="2"/>
  <line x1="150.00" y1="113.40" x2="125.00" y2="70.10" stroke="#9370DB" stroke-width="2"/>
  <circle cx="200" cy="200" r="100" fill="#F8F8FF" stroke="#9370DB" stroke-width="2"/>
  <polygon points="200.00,110.00 212.94,151.70 245.00,122.06 235.36,164.64 277.94,155.00 248.30,187.06 290.00,200.00 248.30,212.94 277.94,245.00 235.36,235.36 245.00,277.94 212.94,248.30 200.00,290.00 187.06,248.30 155.00,277.94 164.64,235.36 122.06,245.00 151.70,212.94 110.00,200.00 151.70,187.06 122.06,155.00 164.64,164.64 155.00,122.06 187.06,151.70" fill="#E6E6FA" stroke="#9370DB" stroke-width="1"/>
  <text x="200" y="380" text-anchor="middle" font-family="Arial" font-size="14" fill="#333">Zodiac Wheel</text>
</svg>